<svg version="1.1" id="Layer_1" xmlns="http://www.w3.org/2000/svg" xmlns:xlink="http://www.w3.org/1999/xlink" x="0px" y="0px"
	 width="100%" viewBox="0 0 500 500" enable-background="new 0 0 500 500" xml:space="preserve">
<path fill="#000000" opacity="1.000000" stroke="none" 
	d="
M449.000000,501.000000 
	C299.333374,501.000000 150.166733,501.000000 1.000080,501.000000 
	C1.000053,334.333405 1.000053,167.666824 1.000027,1.000170 
	C167.666550,1.000113 334.333099,1.000113 500.999756,1.000057 
	C500.999817,167.666519 500.999817,334.333038 500.999908,500.999756 
	C483.833344,501.000000 466.666656,501.000000 449.000000,501.000000 
M384.069885,415.199677 
	C384.069885,415.199677 384.137634,414.987640 383.902008,414.587677 
	C383.722443,414.330444 383.495789,414.125183 383.201904,413.721832 
	C383.034088,413.758545 382.866241,413.795258 382.698425,413.832001 
	C382.810822,413.943817 382.923218,414.055664 383.295502,414.545776 
	C383.502167,414.779358 383.738953,414.976776 384.069885,415.199677 
M378.057556,408.192505 
	C378.057556,408.192505 378.139496,407.991791 377.889465,407.601440 
	C377.703400,407.350250 377.473907,407.148438 377.057037,406.382599 
	C376.700867,405.871826 376.344727,405.361053 375.924316,404.769135 
	C375.924316,404.769135 375.842804,404.994873 376.007202,405.603577 
	C376.345276,406.126740 376.683350,406.649933 377.286560,407.544861 
	C377.493744,407.775452 377.728943,407.972626 378.057556,408.192505 
M411.158356,387.245758 
	C411.297974,387.268524 411.437622,387.291290 411.577240,387.314087 
	C411.441437,387.118988 411.305664,386.923859 411.119904,386.537048 
	C411.006836,386.498993 410.893768,386.460938 410.780701,386.422852 
	C410.856415,386.636902 410.932159,386.850922 411.158356,387.245758 
M364.936127,442.089386 
	C364.936127,442.089386 365.207062,441.982239 365.207062,441.982239 
	C365.207062,441.982239 365.033173,441.734131 365.025238,441.484100 
	C364.835999,441.531921 364.646729,441.579773 364.457489,441.627625 
	C364.568420,441.747345 364.679321,441.867096 364.936127,442.089386 
M394.991180,428.113922 
	C394.991180,428.113922 395.262970,427.987396 395.262970,427.987396 
	C395.262970,427.987396 395.062988,427.735626 395.058014,427.477325 
	C394.864044,427.449219 394.670105,427.421082 394.476135,427.392944 
	C394.601990,427.593964 394.727844,427.794952 394.991180,428.113922 
M354.902985,426.392792 
	C355.060333,426.358154 355.217682,426.323517 355.375031,426.288879 
	C355.286743,426.192657 355.198486,426.096436 355.055511,425.786621 
	C354.899109,425.809906 354.742706,425.833160 354.586334,425.856415 
	C354.665558,425.972137 354.744781,426.087860 354.902985,426.392792 
M389.009552,421.111267 
	C389.009552,421.111267 389.260345,420.981537 389.260345,420.981537 
	C389.260345,420.981537 389.067993,420.736694 389.057434,420.486938 
	C388.870544,420.464539 388.683624,420.442169 388.496735,420.419769 
	C388.625488,420.611420 388.754272,420.803101 389.009552,421.111267 
M382.337769,446.725800 
	C382.518524,446.571472 382.699280,446.417145 382.880035,446.262817 
	C382.665375,446.374115 382.450714,446.485413 382.337769,446.725800 
M387.789185,92.050255 
	C387.619232,91.970314 387.449249,91.890373 387.279297,91.810440 
	C387.413574,91.941643 387.547852,92.072845 387.789185,92.050255 
M406.908508,426.850647 
	C407.119965,426.950073 407.331421,427.049469 407.542847,427.148865 
	C407.586151,427.009003 407.629456,426.869141 407.672791,426.729309 
	C407.444946,426.690002 407.217072,426.650696 406.908508,426.850647 
M390.615112,441.508148 
	C390.776947,441.383026 390.938751,441.257874 391.100586,441.132751 
	C390.907654,441.203003 390.714752,441.273224 390.615112,441.508148 
M404.878876,380.940765 
	C404.758453,381.008636 404.638000,381.076508 404.517578,381.144348 
	C404.612152,381.243317 404.706726,381.342316 404.801270,381.441315 
	C404.874054,381.323700 404.946838,381.206055 404.878876,380.940765 
M348.510010,415.401184 
	C348.510010,415.401184 348.438873,415.636505 348.438873,415.636505 
	C348.438873,415.636505 348.592590,415.452850 348.510010,415.401184 
M418.773743,393.416595 
	C418.874817,393.360138 418.975891,393.303650 419.076935,393.247162 
	C418.998230,393.163452 418.919495,393.079742 418.840759,392.996063 
	C418.778046,393.093292 418.715332,393.190521 418.773743,393.416595 
M381.902557,391.362762 
	C381.851959,391.359680 381.801361,391.356598 381.902557,391.362762 
M401.754639,431.672943 
	C401.754639,431.672943 401.807190,431.978363 401.807190,431.978363 
	C401.807190,431.978363 401.882019,431.675781 401.754639,431.672943 
M401.249054,380.193848 
	C401.249054,380.193848 401.096405,380.082123 401.096405,380.082123 
	C401.096405,380.082123 401.191162,380.245026 401.249054,380.193848 
M393.299011,85.451813 
	C393.230988,85.452477 393.162933,85.453140 393.299011,85.451813 
M377.901764,104.323624 
	C378.108734,104.287766 378.315674,104.251907 378.522644,104.216049 
	C378.322784,104.168159 378.122955,104.120270 377.901764,104.323624 
M366.805481,104.436577 
	C366.908447,104.379967 367.011414,104.323357 367.114380,104.266769 
	C367.034515,104.181389 366.954681,104.096008 366.874847,104.010620 
	C366.811005,104.108986 366.747192,104.207352 366.805481,104.436577 
M382.229248,98.166649 
	C382.229248,98.166649 382.184662,98.204948 382.229248,98.166649 
M288.375519,446.092438 
	C288.375519,446.092438 288.632812,446.023529 288.632812,446.023529 
	C288.632812,446.023529 288.379303,445.939941 288.375519,446.092438 
M350.498230,419.124756 
	C350.498230,419.124756 350.581787,418.891785 350.581787,418.891785 
	C350.581787,418.891785 350.394440,419.039673 350.498230,419.124756 
M352.431946,421.965790 
	C352.431946,421.965790 352.546539,422.132660 352.546539,422.132660 
	C352.546539,422.132660 352.536987,421.927338 352.431946,421.965790 
M391.490417,423.060852 
	C391.490417,423.060852 391.428528,423.009491 391.490417,423.060852 
M356.567169,454.945801 
	C356.567169,454.945801 356.562714,455.020508 356.567169,454.945801 
M372.049500,453.400696 
	C372.049500,453.400696 371.867249,453.529724 371.867249,453.529724 
	C371.867249,453.529724 372.094666,453.515930 372.049500,453.400696 
M397.432495,429.975525 
	C397.432495,429.975525 397.513428,429.947540 397.432495,429.975525 
M358.444244,430.979401 
	C358.444244,430.979401 358.525116,430.951843 358.444244,430.979401 
M358.503021,457.930389 
	C358.503021,457.930389 358.568512,457.985687 358.503021,457.930389 
M361.461304,435.993195 
	C361.461304,435.993195 361.522888,435.974091 361.461304,435.993195 
M401.618530,73.899895 
	C401.618530,73.899895 401.383545,73.961914 401.383545,73.961914 
	C401.383545,73.961914 401.614624,74.038513 401.618530,73.899895 
M390.362488,88.873177 
	C390.362488,88.873177 390.533691,89.095947 390.533691,89.095947 
	C390.533691,89.095947 390.506104,88.806259 390.362488,88.873177 
M385.005890,95.459076 
	C385.005890,95.459076 385.023743,95.517044 385.005890,95.459076 
M376.044739,106.418633 
	C376.044739,106.418633 375.851624,106.553810 375.851624,106.553810 
	C375.851624,106.553810 376.091553,106.540154 376.044739,106.418633 
M371.108765,107.378929 
	C371.108765,107.378929 370.906830,107.530792 370.906830,107.530792 
	C370.906830,107.530792 371.166321,107.508949 371.108765,107.378929 
M396.050720,386.493530 
	C396.050720,386.493530 396.007538,386.545044 396.050720,386.493530 
M415.522003,389.990662 
	C415.522003,389.990662 415.485992,389.999908 415.522003,389.990662 
M385.478333,394.008972 
	C385.478333,394.008972 385.515533,393.999298 385.478333,394.008972 
M433.961670,398.460297 
	C433.961670,398.460297 434.004120,398.464447 433.961670,398.460297 
M371.587982,399.937622 
	C371.587982,399.937622 371.583588,400.033478 371.587982,399.937622 
M429.480133,402.010071 
	C429.480133,402.010071 429.515839,402.000916 429.480133,402.010071 
M388.039948,395.532104 
	C388.039948,395.532104 387.997589,395.527863 388.039948,395.532104 
M373.403198,403.083527 
	C373.403198,403.083527 373.624084,403.028137 373.624084,403.028137 
	C373.624084,403.028137 373.407776,402.954956 373.403198,403.083527 
M404.551910,365.497040 
	C404.551910,365.497040 404.477753,365.531860 404.551910,365.497040 
M367.548279,455.495148 
	C367.548279,455.495148 367.482635,455.524506 367.548279,455.495148 
M369.437500,454.500732 
	C369.437500,454.500732 369.518677,454.460571 369.437500,454.500732 
M375.543091,450.493103 
	C375.543091,450.493103 375.482941,450.517944 375.543091,450.493103 
M378.538879,448.490906 
	C378.538879,448.490906 378.484833,448.510681 378.538879,448.490906 
M297.561005,447.497925 
	C297.561005,447.497925 297.486938,447.533264 297.561005,447.497925 
M366.499176,101.567230 
	C366.499176,101.567230 366.454163,101.479263 366.499176,101.567230 
M392.461578,438.514771 
	C392.461578,438.514771 392.520203,438.491394 392.461578,438.514771 
M295.454254,436.506714 
	C295.454254,436.506714 295.514008,436.482117 295.454254,436.506714 
M292.549133,436.494751 
	C292.549133,436.494751 292.486115,436.522369 292.549133,436.494751 
M402.474548,366.513184 
	C402.474548,366.513184 402.519287,366.500397 402.474548,366.513184 
M397.494843,384.458038 
	C397.494843,384.458038 397.525909,384.527344 397.494843,384.458038 
M391.566132,391.510651 
	C391.566132,391.510651 391.477051,391.557800 391.566132,391.510651 
z"/>
<path fill="#080808" opacity="1.000000" stroke="none" 
	d="
M382.286926,446.661255 
	C382.450714,446.485413 382.665375,446.374115 382.880035,446.262817 
	C382.699280,446.417145 382.518524,446.571472 382.286926,446.661255 
z"/>
<path fill="#0A0A0A" opacity="1.000000" stroke="none" 
	d="
M387.735657,92.127151 
	C387.547852,92.072845 387.413574,91.941643 387.279297,91.810440 
	C387.449249,91.890373 387.619232,91.970314 387.735657,92.127151 
z"/>
<path fill="#090909" opacity="1.000000" stroke="none" 
	d="
M406.948853,426.731018 
	C407.217072,426.650696 407.444946,426.690002 407.672791,426.729309 
	C407.629456,426.869141 407.586151,427.009003 407.542847,427.148865 
	C407.331421,427.049469 407.119965,426.950073 406.948853,426.731018 
z"/>
<path fill="#080808" opacity="1.000000" stroke="none" 
	d="
M390.568481,441.425812 
	C390.714752,441.273224 390.907654,441.203003 391.100586,441.132751 
	C390.938751,441.257874 390.776947,441.383026 390.568481,441.425812 
z"/>
<path fill="#080808" opacity="1.000000" stroke="none" 
	d="
M404.949219,381.014587 
	C404.946838,381.206055 404.874054,381.323700 404.801270,381.441315 
	C404.706726,381.342316 404.612152,381.243317 404.517578,381.144348 
	C404.638000,381.076508 404.758453,381.008636 404.949219,381.014587 
z"/>
<path fill="#080808" opacity="1.000000" stroke="none" 
	d="
M348.551300,415.427002 
	C348.592590,415.452850 348.438873,415.636505 348.438873,415.636505 
	C348.438873,415.636505 348.510010,415.401184 348.551300,415.427002 
z"/>
<path fill="#080808" opacity="1.000000" stroke="none" 
	d="
M418.713196,393.352173 
	C418.715332,393.190521 418.778046,393.093292 418.840759,392.996063 
	C418.919495,393.079742 418.998230,393.163452 419.076935,393.247162 
	C418.975891,393.303650 418.874817,393.360138 418.713196,393.352173 
z"/>
<path fill="#080808" opacity="1.000000" stroke="none" 
	d="
M381.826660,391.358154 
	C381.801361,391.356598 381.851959,391.359680 381.826660,391.358154 
z"/>
<path fill="#090909" opacity="1.000000" stroke="none" 
	d="
M401.818329,431.674377 
	C401.882019,431.675781 401.807190,431.978363 401.807190,431.978363 
	C401.807190,431.978363 401.754639,431.672943 401.818329,431.674377 
z"/>
<path fill="#080808" opacity="1.000000" stroke="none" 
	d="
M401.220093,380.219421 
	C401.191162,380.245026 401.096405,380.082123 401.096405,380.082123 
	C401.096405,380.082123 401.249054,380.193848 401.220093,380.219421 
z"/>
<path fill="#0A0A0A" opacity="1.000000" stroke="none" 
	d="
M393.196960,85.452812 
	C393.162933,85.453140 393.230988,85.452477 393.196960,85.452812 
z"/>
<path fill="#0A0A0A" opacity="1.000000" stroke="none" 
	d="
M377.912415,104.197998 
	C378.122955,104.120270 378.322784,104.168159 378.522644,104.216049 
	C378.315674,104.251907 378.108734,104.287766 377.912415,104.197998 
z"/>
<path fill="#0A0A0A" opacity="1.000000" stroke="none" 
	d="
M366.744415,104.371155 
	C366.747192,104.207352 366.811005,104.108986 366.874847,104.010628 
	C366.954681,104.096008 367.034515,104.181389 367.114380,104.266754 
	C367.011414,104.323357 366.908447,104.379967 366.744415,104.371155 
z"/>
<path fill="#0A0A0A" opacity="1.000000" stroke="none" 
	d="
M382.206970,98.185799 
	C382.184662,98.204948 382.229248,98.166649 382.206970,98.185799 
z"/>
<path fill="#090909" opacity="1.000000" stroke="none" 
	d="
M383.035614,414.167480 
	C382.923218,414.055664 382.810822,413.943817 382.698425,413.832001 
	C382.866241,413.795258 383.034088,413.758545 383.161926,413.892456 
	C383.121948,414.063110 383.035614,414.167480 383.035614,414.167480 
z"/>
<path fill="#090909" opacity="1.000000" stroke="none" 
	d="
M288.377411,446.016174 
	C288.379303,445.939941 288.632812,446.023529 288.632812,446.023529 
	C288.632812,446.023529 288.375519,446.092438 288.377411,446.016174 
z"/>
<path fill="#080808" opacity="1.000000" stroke="none" 
	d="
M350.446350,419.082214 
	C350.394440,419.039673 350.581787,418.891785 350.581787,418.891785 
	C350.581787,418.891785 350.498230,419.124756 350.446350,419.082214 
z"/>
<path fill="#090909" opacity="1.000000" stroke="none" 
	d="
M388.883026,420.994751 
	C388.754272,420.803101 388.625488,420.611420 388.496735,420.419800 
	C388.683624,420.442169 388.870544,420.464539 389.022217,420.680481 
	C388.987030,420.873993 388.883026,420.994751 388.883026,420.994751 
z"/>
<path fill="#080808" opacity="1.000000" stroke="none" 
	d="
M352.484467,421.946564 
	C352.536987,421.927338 352.546539,422.132660 352.546539,422.132660 
	C352.546539,422.132660 352.431946,421.965790 352.484467,421.946564 
z"/>
<path fill="#090909" opacity="1.000000" stroke="none" 
	d="
M391.459473,423.035156 
	C391.428528,423.009491 391.490417,423.060852 391.459473,423.035156 
z"/>
<path fill="#080808" opacity="1.000000" stroke="none" 
	d="
M354.824036,426.203583 
	C354.744781,426.087860 354.665558,425.972137 354.586304,425.856445 
	C354.742706,425.833160 354.899109,425.809906 355.009949,425.942322 
	C354.964386,426.098053 354.824005,426.203583 354.824036,426.203583 
z"/>
<path fill="#080808" opacity="1.000000" stroke="none" 
	d="
M356.564941,454.983154 
	C356.562714,455.020508 356.567169,454.945801 356.564941,454.983154 
z"/>
<path fill="#080808" opacity="1.000000" stroke="none" 
	d="
M372.072083,453.458313 
	C372.094666,453.515930 371.867249,453.529724 371.867249,453.529724 
	C371.867249,453.529724 372.049500,453.400696 372.072083,453.458313 
z"/>
<path fill="#080808" opacity="1.000000" stroke="none" 
	d="
M355.037292,426.049133 
	C355.198486,426.096436 355.286743,426.192657 355.375031,426.288879 
	C355.217682,426.323517 355.060333,426.358154 354.863495,426.298187 
	C354.824005,426.203583 354.964386,426.098053 355.037292,426.049133 
z"/>
<path fill="#090909" opacity="1.000000" stroke="none" 
	d="
M394.853699,427.995972 
	C394.727844,427.794952 394.601990,427.593964 394.476135,427.392944 
	C394.670105,427.421082 394.864044,427.449219 395.013550,427.675873 
	C394.969086,427.874420 394.853699,427.995972 394.853699,427.995972 
z"/>
<path fill="#090909" opacity="1.000000" stroke="none" 
	d="
M397.472961,429.961548 
	C397.513428,429.947540 397.432495,429.975525 397.472961,429.961548 
z"/>
<path fill="#080808" opacity="1.000000" stroke="none" 
	d="
M358.484680,430.965637 
	C358.525116,430.951843 358.444244,430.979401 358.484680,430.965637 
z"/>
<path fill="#080808" opacity="1.000000" stroke="none" 
	d="
M358.535767,457.958038 
	C358.568512,457.985687 358.503021,457.930389 358.535767,457.958038 
z"/>
<path fill="#080808" opacity="1.000000" stroke="none" 
	d="
M361.492096,435.983643 
	C361.522888,435.974091 361.461304,435.993195 361.492096,435.983643 
z"/>
<path fill="#080808" opacity="1.000000" stroke="none" 
	d="
M364.790222,441.986847 
	C364.679321,441.867096 364.568420,441.747345 364.457489,441.627625 
	C364.646729,441.579773 364.835999,441.531921 364.974152,441.677734 
	C364.923065,441.871399 364.790222,441.986847 364.790222,441.986847 
z"/>
<path fill="#080808" opacity="1.000000" stroke="none" 
	d="
M411.007874,387.064972 
	C410.932159,386.850922 410.856415,386.636902 410.780701,386.422852 
	C410.893768,386.460938 411.006836,386.498993 411.107025,386.718201 
	C411.094147,386.899384 411.007874,387.064972 411.007874,387.064972 
z"/>
<path fill="#0A0A0A" opacity="1.000000" stroke="none" 
	d="
M401.616577,73.969208 
	C401.614624,74.038513 401.383545,73.961914 401.383545,73.961914 
	C401.383545,73.961914 401.618530,73.899895 401.616577,73.969208 
z"/>
<path fill="#0A0A0A" opacity="1.000000" stroke="none" 
	d="
M390.434296,88.839722 
	C390.506104,88.806259 390.533691,89.095947 390.533691,89.095947 
	C390.533691,89.095947 390.362488,88.873177 390.434296,88.839722 
z"/>
<path fill="#0A0A0A" opacity="1.000000" stroke="none" 
	d="
M385.014832,95.488060 
	C385.023743,95.517044 385.005890,95.459076 385.014832,95.488060 
z"/>
<path fill="#0A0A0A" opacity="1.000000" stroke="none" 
	d="
M376.068146,106.479393 
	C376.091553,106.540154 375.851624,106.553810 375.851624,106.553810 
	C375.851624,106.553810 376.044739,106.418633 376.068146,106.479393 
z"/>
<path fill="#0A0A0A" opacity="1.000000" stroke="none" 
	d="
M371.137543,107.443939 
	C371.166321,107.508949 370.906830,107.530792 370.906830,107.530792 
	C370.906830,107.530792 371.108765,107.378929 371.137543,107.443939 
z"/>
<path fill="#090909" opacity="1.000000" stroke="none" 
	d="
M377.021423,407.173096 
	C376.683350,406.649933 376.345276,406.126740 375.962250,405.263855 
	C375.917297,404.924164 375.988586,404.850281 375.988586,404.850281 
	C376.344727,405.361053 376.700867,405.871826 377.080231,406.729767 
	C377.103424,407.076935 377.021423,407.173096 377.021423,407.173096 
z"/>
<path fill="#080808" opacity="1.000000" stroke="none" 
	d="
M396.029114,386.519287 
	C396.007538,386.545044 396.050720,386.493530 396.029114,386.519287 
z"/>
<path fill="#080808" opacity="1.000000" stroke="none" 
	d="
M411.132019,386.814087 
	C411.305664,386.923859 411.441437,387.118988 411.577240,387.314087 
	C411.437622,387.291290 411.297974,387.268524 411.083130,387.155365 
	C411.007874,387.064972 411.094147,386.899384 411.132019,386.814087 
z"/>
<path fill="#080808" opacity="1.000000" stroke="none" 
	d="
M415.503998,389.995300 
	C415.485992,389.999908 415.522003,389.990662 415.503998,389.995300 
z"/>
<path fill="#080808" opacity="1.000000" stroke="none" 
	d="
M385.496948,394.004150 
	C385.515533,393.999298 385.478333,394.008972 385.496948,394.004150 
z"/>
<path fill="#080808" opacity="1.000000" stroke="none" 
	d="
M433.982910,398.462372 
	C434.004120,398.464447 433.961670,398.460297 433.982910,398.462372 
z"/>
<path fill="#090909" opacity="1.000000" stroke="none" 
	d="
M371.585785,399.985535 
	C371.583588,400.033478 371.587982,399.937622 371.585785,399.985535 
z"/>
<path fill="#080808" opacity="1.000000" stroke="none" 
	d="
M429.497986,402.005493 
	C429.515839,402.000916 429.480133,402.010071 429.497986,402.005493 
z"/>
<path fill="#080808" opacity="1.000000" stroke="none" 
	d="
M388.018768,395.529968 
	C387.997589,395.527863 388.039948,395.532104 388.018768,395.529968 
z"/>
<path fill="#090909" opacity="1.000000" stroke="none" 
	d="
M373.405487,403.019226 
	C373.407776,402.954956 373.624084,403.028137 373.624084,403.028137 
	C373.624084,403.028137 373.403198,403.083527 373.405487,403.019226 
z"/>
<path fill="#080808" opacity="1.000000" stroke="none" 
	d="
M404.514832,365.514465 
	C404.477753,365.531860 404.551910,365.497040 404.514832,365.514465 
z"/>
<path fill="#090909" opacity="1.000000" stroke="none" 
	d="
M377.992188,408.136383 
	C377.728943,407.972626 377.493744,407.775452 377.153992,407.358978 
	C377.021423,407.173096 377.103424,407.076935 377.152222,407.036438 
	C377.473907,407.148438 377.703400,407.350250 377.977722,407.832825 
	C378.065979,408.064240 377.992188,408.136383 377.992188,408.136383 
z"/>
<path fill="#080808" opacity="1.000000" stroke="none" 
	d="
M367.515442,455.509827 
	C367.482635,455.524506 367.548279,455.495148 367.515442,455.509827 
z"/>
<path fill="#080808" opacity="1.000000" stroke="none" 
	d="
M369.478088,454.480652 
	C369.518677,454.460571 369.437500,454.500732 369.478088,454.480652 
z"/>
<path fill="#090909" opacity="1.000000" stroke="none" 
	d="
M378.102722,408.028015 
	C378.139496,407.991791 378.057556,408.192505 378.024872,408.164429 
	C377.992188,408.136383 378.065979,408.064240 378.102722,408.028015 
z"/>
<path fill="#090909" opacity="1.000000" stroke="none" 
	d="
M375.880066,404.959534 
	C375.842804,404.994873 375.924316,404.769135 375.956451,404.809692 
	C375.988586,404.850281 375.917297,404.924164 375.880066,404.959534 
z"/>
<path fill="#080808" opacity="1.000000" stroke="none" 
	d="
M375.513000,450.505524 
	C375.482941,450.517944 375.543091,450.493103 375.513000,450.505524 
z"/>
<path fill="#080808" opacity="1.000000" stroke="none" 
	d="
M378.511841,448.500793 
	C378.484833,448.510681 378.538879,448.490906 378.511841,448.500793 
z"/>
<path fill="#090909" opacity="1.000000" stroke="none" 
	d="
M297.523987,447.515594 
	C297.486938,447.533264 297.561005,447.497925 297.523987,447.515594 
z"/>
<path fill="#0A0A0A" opacity="1.000000" stroke="none" 
	d="
M366.476685,101.523247 
	C366.454163,101.479263 366.499176,101.567230 366.476685,101.523247 
z"/>
<path fill="#080808" opacity="1.000000" stroke="none" 
	d="
M364.978119,441.802765 
	C365.033173,441.734131 365.207062,441.982239 365.207062,441.982239 
	C365.207062,441.982239 364.936127,442.089386 364.863159,442.038116 
	C364.790222,441.986847 364.923065,441.871399 364.978119,441.802765 
z"/>
<path fill="#090909" opacity="1.000000" stroke="none" 
	d="
M383.172028,414.017517 
	C383.495789,414.125183 383.722443,414.330444 383.987305,414.825623 
	C384.072571,415.063568 384.005859,415.138031 384.005859,415.138031 
	C383.738953,414.976776 383.502167,414.779358 383.165558,414.356628 
	C383.035614,414.167480 383.121948,414.063110 383.172028,414.017517 
z"/>
<path fill="#080808" opacity="1.000000" stroke="none" 
	d="
M392.490906,438.503082 
	C392.520203,438.491394 392.461578,438.514771 392.490906,438.503082 
z"/>
<path fill="#090909" opacity="1.000000" stroke="none" 
	d="
M295.484131,436.494415 
	C295.514008,436.482117 295.454254,436.506714 295.484131,436.494415 
z"/>
<path fill="#090909" opacity="1.000000" stroke="none" 
	d="
M292.517639,436.508545 
	C292.486115,436.522369 292.549133,436.494751 292.517639,436.508545 
z"/>
<path fill="#080808" opacity="1.000000" stroke="none" 
	d="
M402.496918,366.506775 
	C402.519287,366.500397 402.474548,366.513184 402.496918,366.506775 
z"/>
<path fill="#080808" opacity="1.000000" stroke="none" 
	d="
M397.510376,384.492676 
	C397.525909,384.527344 397.494843,384.458038 397.510376,384.492676 
z"/>
<path fill="#090909" opacity="1.000000" stroke="none" 
	d="
M384.105103,415.025604 
	C384.137634,414.987640 384.069885,415.199677 384.037872,415.168854 
	C384.005859,415.138031 384.072571,415.063568 384.105103,415.025604 
z"/>
<path fill="#090909" opacity="1.000000" stroke="none" 
	d="
M395.016052,427.805023 
	C395.062988,427.735626 395.262970,427.987396 395.262970,427.987396 
	C395.262970,427.987396 394.991180,428.113922 394.922424,428.054932 
	C394.853699,427.995972 394.969086,427.874420 395.016052,427.805023 
z"/>
<path fill="#080808" opacity="1.000000" stroke="none" 
	d="
M391.521606,391.534241 
	C391.477051,391.557800 391.566132,391.510651 391.521606,391.534241 
z"/>
<path fill="#090909" opacity="1.000000" stroke="none" 
	d="
M389.027527,420.805359 
	C389.067993,420.736694 389.260345,420.981537 389.260345,420.981537 
	C389.260345,420.981537 389.009552,421.111267 388.946289,421.053009 
	C388.883026,420.994751 388.987030,420.873993 389.027527,420.805359 
z"/>
</svg>